# xmcd
#
# Track frame offsets:
#	150
#	21438
#	40998
#	69762
#	83365
#	98962
#	109448
#
# Disc length: 1628 seconds
#
# Revision: 0
# Processed by: cddbd v1.4PL0 Copyright (c) Steve Scherf et al.
# Submitted via: dBpowerAMP V4.0
#
DISCID=51065a07
DTITLE=King Brothers Circus - Circus Blue
DYEAR=2001
DGENRE=Blues
TTITLE0=The Thrill Is Gone
TTITLE1=Honey Child
TTITLE2=Circus Blue
TTITLE3=Must Have Done Somebody Wrong
TTITLE4=Down In The  Dungeon
TTITLE5=Do You Want To Make Love
TTITLE6=Coulda Shoulda
EXTD=
EXTT0=
EXTT1=
EXTT2=
EXTT3=
EXTT4=
EXTT5=
EXTT6=
PLAYORDER=
